<svg id="Layer_1" data-name="Layer 1" xmlns="http://www.w3.org/2000/svg" xmlns:xlink="http://www.w3.org/1999/xlink" viewBox="0 0 387.76 339.64"><defs><style>.cls-1{fill:url(#linear-gradient);}.cls-2{fill:url(#linear-gradient-2);}.cls-3{fill:url(#linear-gradient-3);}</style><linearGradient id="linear-gradient" x1="-20.24" y1="19.72" x2="379.02" y2="232.01" gradientUnits="userSpaceOnUse"><stop offset="0.19" stop-color="#2ecc71"/><stop offset="0.23" stop-color="#2dc87b"/><stop offset="0.3" stop-color="#2abc97"/><stop offset="0.36" stop-color="#26aeb8"/><stop offset="0.43" stop-color="#24a7c8"/><stop offset="0.57" stop-color="#1f95f3"/><stop offset="0.6" stop-color="#1e90ff"/><stop offset="0.66" stop-color="#26adbb"/><stop offset="0.68" stop-color="#38b0ac"/><stop offset="0.72" stop-color="#67b986"/><stop offset="0.77" stop-color="#b2c749"/><stop offset="0.82" stop-color="#ffd60a"/></linearGradient><linearGradient id="linear-gradient-2" x1="-37.39" y1="81.62" x2="336.29" y2="280.31" xlink:href="#linear-gradient"/><linearGradient id="linear-gradient-3" x1="-72.94" y1="24.67" x2="357.67" y2="253.63" xlink:href="#linear-gradient"/></defs><title>Mui-logo</title><polygon class="cls-1" points="0 0 103.99 68.63 136.37 111.27 161.56 128.04 136.39 90.31 194.06 128.5 387.75 0 387.75 182.3 361.35 198.7 350.33 219.41 327.8 234.83 327.8 109.46 193.95 198.7 63.05 111.42 63.05 257.37 84.33 271.96 84.33 148.7 136.37 183.6 136.37 339.64 0 248.32 0 0"/><polygon class="cls-2" points="304.45 149.06 304.45 271.96 318.39 290.36 232.85 339.64 249.03 306.27 249.03 182.3 304.45 149.06"/><polygon class="cls-3" points="387.76 219.41 387.76 250.07 327.8 287.96 327.8 257.37 387.76 219.41"/></svg>